<svg id="campaign" data-name="line color" xmlns="http://www.w3.org/2000/svg" viewBox="0 0 24 24" class="icon line-color" width="32" height="32"><path id="primary" d="M19.76,16.69,9,14V6L19.76,3.31a1,1,0,0,1,1.24,1V15.72A1,1,0,0,1,19.76,16.69Z" style="fill: none; stroke: rgb(83, 16, 248); stroke-linecap: round; stroke-linejoin: round; stroke-width: 0.5;"></path><path id="secondary" d="M9,14H7a4,4,0,0,1-4-4H3A4,4,0,0,1,7,6H9ZM4.41,13,5.84,20.2a1,1,0,0,0,1,.8H8a1,1,0,0,0,1-1V14" style="fill: none; stroke: rgb(168, 4, 57); stroke-linecap: round; stroke-linejoin: round; stroke-width: 0.5;"></path></svg>