<svg id="down-alt" data-name="Line Color" xmlns="http://www.w3.org/2000/svg" viewBox="0 0 24 24" class="icon line-color" width="32" height="32"><path id="secondary" d="M9,12.27v-8a1,1,0,0,1,1-1h4a1,1,0,0,1,1,1v8" style="fill: none; stroke: rgb(168, 4, 57); stroke-linecap: round; stroke-linejoin: round; stroke-width: 0.5;"></path><path id="primary" d="M15,12.27l2.21-1.48a1,1,0,0,1,1.36.23l1.84,2.46a1,1,0,0,1-.19,1.39l-7.61,5.92a1,1,0,0,1-1.22,0L3.78,14.87a1,1,0,0,1-.19-1.39L5.43,11a1,1,0,0,1,1.36-.23L9,12.27" style="fill: none; stroke: rgb(83, 16, 248); stroke-linecap: round; stroke-linejoin: round; stroke-width: 0.5;"></path></svg>