<svg id="earphone" data-name="line color" xmlns="http://www.w3.org/2000/svg" viewBox="0 0 24 24" class="icon line-color" width="32" height="32"><path id="secondary" d="M6,21V9M18,9V21" style="fill: none; stroke: rgb(168, 4, 57); stroke-linecap: round; stroke-linejoin: round; stroke-width: 0.5;"></path><path id="primary" d="M7,9H5A1,1,0,0,1,4,8V4A1,1,0,0,1,5,3H7a3,3,0,0,1,3,3h0A3,3,0,0,1,7,9ZM17,9h2a1,1,0,0,0,1-1V4a1,1,0,0,0-1-1H17a3,3,0,0,0-3,3h0A3,3,0,0,0,17,9Z" style="fill: none; stroke: rgb(83, 16, 248); stroke-linecap: round; stroke-linejoin: round; stroke-width: 0.5;"></path></svg>