<svg id="gift" data-name="Line Color" xmlns="http://www.w3.org/2000/svg" viewBox="0 0 24 24" class="icon line-color" width="32" height="32"><path id="primary" d="M20,10H4A1,1,0,0,1,3,9V7A1,1,0,0,1,4,6H20a1,1,0,0,1,1,1V9A1,1,0,0,1,20,10Zm0,8V10H4v8a1,1,0,0,0,1,1H19A1,1,0,0,0,20,18Z" style="fill: none; stroke: rgb(83, 16, 248); stroke-linecap: round; stroke-linejoin: round; stroke-width: 0.5;"></path><path id="secondary" d="M8,3a5.36,5.36,0,0,1,4,3m4-3a5.36,5.36,0,0,0-4,3m0,13V6" style="fill: none; stroke: rgb(168, 4, 57); stroke-linecap: round; stroke-linejoin: round; stroke-width: 0.5;"></path></svg>