<svg id="money-alt1" data-name="Line Color" xmlns="http://www.w3.org/2000/svg" viewBox="0 0 24 24" class="icon line-color" width="32" height="32"><path id="secondary" d="M14,7H11.5A1.5,1.5,0,0,0,10,8.5h0A1.5,1.5,0,0,0,11.5,10h1A1.5,1.5,0,0,1,14,11.5h0A1.5,1.5,0,0,1,12.5,13H10m2-7V7m0,6v1" style="fill: none; stroke: rgb(168, 4, 57); stroke-linecap: round; stroke-linejoin: round; stroke-width: 0.5;"></path><path id="primary" d="M20,17H4a1,1,0,0,1-1-1V4A1,1,0,0,1,4,3H20a1,1,0,0,1,1,1V16A1,1,0,0,1,20,17ZM6,21H18" style="fill: none; stroke: rgb(83, 16, 248); stroke-linecap: round; stroke-linejoin: round; stroke-width: 0.5;"></path></svg>