<svg id="music" data-name="line color" xmlns="http://www.w3.org/2000/svg" viewBox="0 0 24 24" class="icon line-color" width="32" height="32"><path id="primary" d="M10,18V5L21,3V16m0-9L10,9" style="fill: none; stroke: rgb(83, 16, 248); stroke-linecap: round; stroke-linejoin: round; stroke-width: 0.5;"></path><path id="secondary" d="M10,18a3.28,3.28,0,0,1-3.5,3A3.28,3.28,0,0,1,3,18a3.28,3.28,0,0,1,3.5-3A3.28,3.28,0,0,1,10,18Zm7.5-5A3.28,3.28,0,0,0,14,16a3.28,3.28,0,0,0,3.5,3A3.28,3.28,0,0,0,21,16,3.28,3.28,0,0,0,17.5,13Z" style="fill: none; stroke: rgb(168, 4, 57); stroke-linecap: round; stroke-linejoin: round; stroke-width: 0.5;"></path></svg>