<svg id="up-alt" data-name="Line Color" xmlns="http://www.w3.org/2000/svg" viewBox="0 0 24 24" class="icon line-color" width="32" height="32"><path id="secondary" d="M15,12v8a1,1,0,0,1-1,1H10a1,1,0,0,1-1-1V12H9" style="fill: none; stroke: rgb(168, 4, 57); stroke-linecap: round; stroke-linejoin: round; stroke-width: 0.5;"></path><path id="primary" d="M9,12,6.79,13.48a1,1,0,0,1-1.36-.24L3.59,10.79A1,1,0,0,1,3.78,9.4l7.61-5.92a1,1,0,0,1,1.22,0L20.22,9.4a1,1,0,0,1,.19,1.39l-1.84,2.45a1,1,0,0,1-1.36.24L15,12" style="fill: none; stroke: rgb(83, 16, 248); stroke-linecap: round; stroke-linejoin: round; stroke-width: 0.5;"></path></svg>